# xmcd
#
# Track frame offsets:
#	150
#	7330
#	29020
#	47665
#	52258
#	67773
#	82178
#	100804
#	121720
#
# Disc length: 2090 seconds
#
# Revision: 0
# Processed by: cddbd v1.4PL0 Copyright (c) Steve Scherf et al.
# Submitted via: dBpowerAMP V4.0
#
DISCID=78082809
DTITLE=Nando Araújo - No Return
DYEAR=1900
DGENRE=Country
TTITLE0=África
TTITLE1=Opet Part
TTITLE2=No Return
TTITLE3=One Minute Waiting For
TTITLE4=Before You Come
TTITLE5=Dancing In The Forest
TTITLE6=Zeitgeist
TTITLE7=September Twenty Fifth
TTITLE8=Deva
EXTD=
EXTT0=
EXTT1=
EXTT2=
EXTT3=
EXTT4=
EXTT5=
EXTT6=
EXTT7=
EXTT8=
PLAYORDER=
